<svg width="317" height="90" viewBox="0 0 317 90" fill="none" xmlns="http://www.w3.org/2000/svg">
<path fill-rule="evenodd" clip-rule="evenodd" d="M18.3215 6.10038L0.232608 80.1004C-0.999131 85.1393 2.81651 90 8.0038 90H259.193C263.034 90 266.333 87.2701 267.051 83.4969L270.519 65.2897C271.262 61.3902 274.749 58.6245 278.716 58.7778C286.378 59.0737 298.436 59.5 304.313 59.5C311.813 59.5 316.313 56.5 316.313 46C316.313 36.5 310.813 34 304.313 34C301.644 34 298.712 33.9671 295.61 33.9324C291.777 33.8894 287.685 33.8435 283.508 33.8531C278.48 33.8647 274.558 29.3915 275.361 24.4281L277.812 9.27751C278.599 4.41269 274.843 0 269.915 0H26.0927C22.4061 0 19.1969 2.51925 18.3215 6.10038ZM302.313 53C305.626 53 308.313 50.3137 308.313 47C308.313 43.6863 305.626 41 302.313 41C298.999 41 296.313 43.6863 296.313 47C296.313 50.3137 298.999 53 302.313 53Z" fill="#788402"/>
<path d="M50.5425 61.566C49.8065 61.566 48.9632 61.1673 48.0125 60.37C47.0618 59.5727 46.0652 58.53 45.0225 57.242C44.0105 55.954 42.9985 54.5433 41.9865 53.01C41.0052 51.446 40.0698 49.882 39.1805 48.318C38.2912 46.754 37.5398 45.3433 36.9265 44.086C36.0985 46.9073 35.3012 49.698 34.5345 52.458C33.7985 55.1873 33.0932 57.7173 32.4185 60.048C31.5292 60.048 30.6858 59.8027 29.8885 59.312C29.1218 58.8213 28.7385 58.1773 28.7385 57.38C28.7385 57.0427 28.8152 56.644 28.9685 56.184C29.1218 55.724 29.2598 55.2793 29.3825 54.85C30.2718 52.182 31.0692 49.8053 31.7745 47.72C32.4798 45.604 33.1392 43.672 33.7525 41.924C34.3965 40.1453 35.0405 38.3973 35.6845 36.68C36.3592 34.932 37.0952 33.1073 37.8925 31.206C38.6898 29.3047 39.6098 27.158 40.6525 24.766C39.4565 25.0113 38.3985 25.3333 37.4785 25.732C36.5892 26.1307 35.8532 26.4833 35.2705 26.79C34.7185 27.0967 34.3352 27.25 34.1205 27.25C33.9672 27.25 33.7372 27.158 33.4305 26.974C33.1238 26.7593 32.8478 26.514 32.6025 26.238C32.3878 25.9313 32.2805 25.6707 32.2805 25.456C33.1392 25.1187 34.1358 24.7507 35.2705 24.352C36.4358 23.9533 37.7085 23.616 39.0885 23.34C40.4685 23.0333 41.8945 22.88 43.3665 22.88C44.7465 22.88 46.1725 23.0487 47.6445 23.386C49.1165 23.6927 50.4812 24.1987 51.7385 24.904C52.9958 25.6093 54.0078 26.5293 54.7745 27.664C55.5412 28.7987 55.9245 30.1633 55.9245 31.758C55.9245 33.506 55.4645 34.978 54.5445 36.174C53.6552 37.3393 52.4898 38.29 51.0485 39.026C49.6378 39.762 48.1198 40.3293 46.4945 40.728C44.8998 41.1267 43.3818 41.4027 41.9405 41.556C40.5298 41.6787 39.3798 41.7553 38.4905 41.786C39.8092 43.8407 41.0972 45.8493 42.3545 47.812C43.6425 49.7747 45.1452 51.722 46.8625 53.654C48.5798 55.586 50.7418 57.5487 53.3485 59.542C53.2258 60.1553 52.8425 60.646 52.1985 61.014C51.5852 61.382 51.0332 61.566 50.5425 61.566ZM37.9845 40.406C39.7018 40.2833 41.3885 40.0073 43.0445 39.578C44.7312 39.1487 46.2492 38.5507 47.5985 37.784C48.9785 37.0173 50.0672 36.0667 50.8645 34.932C51.6925 33.7667 52.1065 32.402 52.1065 30.838C52.1065 29.2433 51.7078 28.0013 50.9105 27.112C50.1132 26.192 49.0858 25.5327 47.8285 25.134C46.5712 24.7353 45.2525 24.5207 43.8725 24.49C42.8298 26.5447 41.8178 28.9673 40.8365 31.758C39.8552 34.518 38.9045 37.4007 37.9845 40.406ZM59.9161 58.024C57.9534 58.024 56.4354 57.4873 55.3621 56.414C54.3194 55.3713 53.7981 54.0527 53.7981 52.458C53.7981 51.1087 54.1354 49.6827 54.8101 48.18C55.5154 46.6467 56.4507 45.2207 57.6161 43.902C58.7814 42.5527 60.0694 41.464 61.4801 40.636C62.8907 39.808 64.3014 39.394 65.7121 39.394C66.5094 39.394 67.2607 39.6087 67.9661 40.038C68.7021 40.4367 69.0701 41.2493 69.0701 42.476C69.0701 43.6413 68.7327 44.73 68.0581 45.742C67.3834 46.754 66.4787 47.6587 65.3441 48.456C64.2094 49.2533 62.9521 49.9127 61.5721 50.434C60.2227 50.9247 58.8581 51.2467 57.4781 51.4C57.4474 51.5227 57.4167 51.6607 57.3861 51.814C57.3861 51.9367 57.3861 52.1513 57.3861 52.458C57.3861 52.6113 57.4014 52.8873 57.4321 53.286C57.4934 53.654 57.6314 54.0527 57.8461 54.482C58.0607 54.9113 58.4134 55.2793 58.9041 55.586C59.3947 55.8927 60.0694 56.046 60.9281 56.046C62.2161 56.046 63.5041 55.6933 64.7921 54.988C66.1107 54.252 67.3374 53.286 68.4721 52.09C69.6374 50.894 70.6034 49.56 71.3701 48.088L72.2901 48.824C71.4621 50.664 70.3887 52.274 69.0701 53.654C67.7821 55.034 66.3407 56.1073 64.7461 56.874C63.1821 57.6407 61.5721 58.024 59.9161 58.024ZM57.9841 49.698C58.7814 49.606 59.6707 49.33 60.6521 48.87C61.6334 48.41 62.5687 47.8273 63.4581 47.122C64.3781 46.4167 65.1294 45.65 65.7121 44.822C66.2947 43.9633 66.5861 43.1047 66.5861 42.246C66.5861 41.9087 66.5247 41.6787 66.4021 41.556C66.2794 41.4333 66.0801 41.372 65.8041 41.372C65.0987 41.372 64.3627 41.6327 63.5961 42.154C62.8294 42.6447 62.0781 43.304 61.3421 44.132C60.6061 44.9293 59.9467 45.8187 59.3641 46.8C58.7814 47.7813 58.3214 48.7473 57.9841 49.698ZM75.4558 58.576C73.8611 58.576 72.5425 58.07 71.4998 57.058C70.4878 56.0767 69.9818 54.5587 69.9818 52.504C69.9818 51.0013 70.2731 49.5293 70.8558 48.088C71.4385 46.6467 72.2205 45.3587 73.2018 44.224C74.1831 43.0587 75.2718 42.1387 76.4678 41.464C77.6945 40.7893 78.9365 40.452 80.1938 40.452C81.4818 40.452 82.4018 40.774 82.9538 41.418C83.5365 42.062 83.8278 42.8133 83.8278 43.672C83.8278 44.5307 83.6131 45.374 83.1838 46.202C82.7851 46.9993 82.2331 47.398 81.5278 47.398C80.9451 47.398 80.4698 47.1067 80.1018 46.524C80.4085 46.3093 80.7305 45.9107 81.0678 45.328C81.4051 44.7453 81.5738 43.994 81.5738 43.074C81.5738 42.5527 81.2825 42.292 80.6998 42.292C79.9331 42.292 79.1205 42.6447 78.2618 43.35C77.4338 44.0247 76.6518 44.914 75.9158 46.018C75.2105 47.0913 74.6278 48.2413 74.1678 49.468C73.7385 50.664 73.5238 51.768 73.5238 52.78C73.5238 53.6387 73.7385 54.436 74.1678 55.172C74.6278 55.8773 75.5018 56.23 76.7898 56.23C77.9551 56.23 79.1665 55.8927 80.4238 55.218C81.6811 54.5433 82.8618 53.608 83.9658 52.412C85.0698 51.1853 85.9591 49.7287 86.6338 48.042L87.5538 48.87C86.8178 50.7407 85.7905 52.412 84.4718 53.884C83.1838 55.3253 81.7425 56.46 80.1478 57.288C78.5838 58.1467 77.0198 58.576 75.4558 58.576ZM94.6842 36.634C94.1015 36.634 93.5648 36.496 93.0742 36.22C92.6142 35.9133 92.3842 35.4533 92.3842 34.84C92.3842 34.104 92.7828 33.4753 93.5802 32.954C94.3775 32.4327 95.2055 32.172 96.0642 32.172C96.6162 32.172 97.0762 32.2947 97.4442 32.54C97.8428 32.7853 98.0422 33.23 98.0422 33.874C98.0422 34.518 97.6895 35.1467 96.9842 35.76C96.2788 36.3427 95.5122 36.634 94.6842 36.634ZM89.2562 57.38C87.9068 57.38 86.8948 56.9813 86.2202 56.184C85.5455 55.3867 85.2082 54.4207 85.2082 53.286C85.2082 52.5807 85.3308 51.6913 85.5762 50.618C85.8215 49.5447 86.1588 48.4253 86.5882 47.26C87.0482 46.064 87.5695 44.9447 88.1522 43.902C88.7348 42.8593 89.3635 42.016 90.0382 41.372C90.7128 40.6973 91.3875 40.36 92.0622 40.36C92.4302 40.36 92.7522 40.4827 93.0282 40.728C93.3042 40.9427 93.4422 41.2647 93.4422 41.694C93.4422 42.0927 93.1968 42.6907 92.7062 43.488C92.2462 44.2853 91.6942 45.2053 91.0502 46.248C90.4368 47.2907 89.8848 48.3793 89.3942 49.514C88.9342 50.618 88.7042 51.676 88.7042 52.688C88.7042 53.6693 88.8728 54.3287 89.2102 54.666C89.5782 54.9727 90.0995 55.126 90.7742 55.126C91.8168 55.126 92.9515 54.6047 94.1782 53.562C95.4048 52.5193 96.6775 50.6947 97.9962 48.088L98.6862 48.824C97.6128 51.5227 96.2482 53.6233 94.5922 55.126C92.9362 56.6287 91.1575 57.38 89.2562 57.38ZM94.2306 68.88C93.8626 68.88 93.4793 68.742 93.0806 68.466C92.6513 68.19 92.4213 67.9447 92.3906 67.73C93.1573 65.4913 93.8166 63.544 94.3686 61.888C94.89 60.2627 95.3346 58.714 95.7026 57.242C96.0706 55.8007 96.408 54.298 96.7146 52.734C96.9906 51.1393 97.2666 49.33 97.5426 47.306C97.8493 45.2513 98.1866 42.7827 98.5546 39.9C98.616 39.532 98.6926 39.2713 98.7846 39.118C98.8766 38.934 99.168 38.842 99.6586 38.842C100.609 38.842 101.299 39.1027 101.729 39.624C102.158 40.1147 102.373 40.6667 102.373 41.28C102.373 42.016 102.158 43.4573 101.729 45.604C102.311 44.7147 102.971 43.8713 103.707 43.074C104.473 42.2767 105.317 41.6327 106.237 41.142C107.157 40.6207 108.153 40.36 109.227 40.36C110.729 40.36 111.971 40.866 112.953 41.878C113.934 42.89 114.425 44.224 114.425 45.88C114.425 47.076 114.149 48.3487 113.597 49.698C113.075 51.0167 112.324 52.274 111.343 53.47C110.361 54.6353 109.181 55.586 107.801 56.322C106.421 57.0887 104.903 57.472 103.247 57.472C102.265 57.472 101.483 57.3493 100.901 57.104C100.318 56.8587 100.027 56.5827 100.027 56.276C100.027 56.0613 100.134 55.9387 100.349 55.908C100.594 55.8467 100.855 55.816 101.131 55.816C102.572 55.7853 103.875 55.4787 105.041 54.896C106.237 54.3133 107.264 53.562 108.123 52.642C108.981 51.6913 109.641 50.6793 110.101 49.606C110.561 48.5327 110.791 47.4747 110.791 46.432C110.791 45.512 110.576 44.7147 110.147 44.04C109.748 43.3653 109.104 43.028 108.215 43.028C107.448 43.028 106.666 43.2733 105.869 43.764C105.102 44.2547 104.381 44.8833 103.707 45.65C103.032 46.386 102.434 47.168 101.913 47.996C101.391 48.7933 100.993 49.4987 100.717 50.112C100.134 52.136 99.5973 54.1447 99.1066 56.138C98.6466 58.162 98.202 60.0327 97.7726 61.75C97.3433 63.4673 96.914 64.924 96.4846 66.12C96.0246 67.316 95.534 68.1287 95.0126 68.558C94.7673 68.7727 94.5066 68.88 94.2306 68.88ZM121.145 58.024C119.182 58.024 117.664 57.4873 116.591 56.414C115.548 55.3713 115.027 54.0527 115.027 52.458C115.027 51.1087 115.364 49.6827 116.039 48.18C116.744 46.6467 117.679 45.2207 118.845 43.902C120.01 42.5527 121.298 41.464 122.709 40.636C124.119 39.808 125.53 39.394 126.941 39.394C127.738 39.394 128.489 39.6087 129.195 40.038C129.931 40.4367 130.299 41.2493 130.299 42.476C130.299 43.6413 129.961 44.73 129.287 45.742C128.612 46.754 127.707 47.6587 126.573 48.456C125.438 49.2533 124.181 49.9127 122.801 50.434C121.451 50.9247 120.087 51.2467 118.707 51.4C118.676 51.5227 118.645 51.6607 118.615 51.814C118.615 51.9367 118.615 52.1513 118.615 52.458C118.615 52.6113 118.63 52.8873 118.661 53.286C118.722 53.654 118.86 54.0527 119.075 54.482C119.289 54.9113 119.642 55.2793 120.133 55.586C120.623 55.8927 121.298 56.046 122.157 56.046C123.445 56.046 124.733 55.6933 126.021 54.988C127.339 54.252 128.566 53.286 129.701 52.09C130.866 50.894 131.832 49.56 132.599 48.088L133.519 48.824C132.691 50.664 131.617 52.274 130.299 53.654C129.011 55.034 127.569 56.1073 125.975 56.874C124.411 57.6407 122.801 58.024 121.145 58.024ZM119.213 49.698C120.01 49.606 120.899 49.33 121.881 48.87C122.862 48.41 123.797 47.8273 124.687 47.122C125.607 46.4167 126.358 45.65 126.941 44.822C127.523 43.9633 127.815 43.1047 127.815 42.246C127.815 41.9087 127.753 41.6787 127.631 41.556C127.508 41.4333 127.309 41.372 127.033 41.372C126.327 41.372 125.591 41.6327 124.825 42.154C124.058 42.6447 123.307 43.304 122.571 44.132C121.835 44.9293 121.175 45.8187 120.593 46.8C120.01 47.7813 119.55 48.7473 119.213 49.698ZM168.368 60.002C167.632 60.002 166.788 59.6187 165.838 58.852C164.918 58.116 163.921 57.1347 162.848 55.908C161.805 54.6813 160.778 53.332 159.766 51.86C158.754 50.388 157.788 48.916 156.868 47.444C155.978 45.9413 155.212 44.5767 154.568 43.35L150.382 56.874C150.167 57.61 149.768 58.1313 149.186 58.438C148.634 58.7753 148.02 58.9747 147.346 59.036C146.671 59.128 146.027 59.174 145.414 59.174C145.843 58.2233 146.272 57.196 146.702 56.092C147.131 55.0187 147.606 53.7153 148.128 52.182C148.649 50.6487 149.278 48.7933 150.014 46.616C150.78 44.4387 151.7 41.8013 152.774 38.704C153.847 35.6067 155.15 31.9267 156.684 27.664C156.745 27.4493 156.852 27.158 157.006 26.79C157.159 26.3913 157.236 26.0233 157.236 25.686C157.236 25.1033 156.929 24.812 156.316 24.812C155.58 24.812 154.89 25.1033 154.246 25.686C153.602 26.238 153.019 26.9433 152.498 27.802C151.976 28.63 151.562 29.4887 151.256 30.378C150.98 31.2673 150.842 32.0493 150.842 32.724C150.842 33.4293 150.995 34.1347 151.302 34.84C149.983 34.84 149.032 34.564 148.45 34.012C147.898 33.4293 147.622 32.7087 147.622 31.85C147.622 30.8073 147.944 29.7647 148.588 28.722C149.232 27.6487 150.044 26.6827 151.026 25.824C152.038 24.9347 153.096 24.2293 154.2 23.708C155.334 23.156 156.377 22.88 157.328 22.88C158.37 22.88 159.045 23.1713 159.352 23.754C159.689 24.306 159.858 24.904 159.858 25.548C159.858 25.8853 159.827 26.2073 159.766 26.514C159.704 26.8207 159.628 27.112 159.536 27.388L156.132 38.428C156.469 38.2133 156.852 37.9373 157.282 37.6C157.742 37.2627 158.416 36.7567 159.306 36.082C161.882 34.0887 164.289 31.9267 166.528 29.596C168.797 27.2653 170.683 24.9807 172.186 22.742C172.554 23.0793 172.799 23.5087 172.922 24.03C173.044 24.5207 173.106 24.9193 173.106 25.226C173.106 26.1767 172.707 27.2193 171.91 28.354C171.143 29.458 170.116 30.608 168.828 31.804C167.57 33 166.19 34.1807 164.688 35.346C163.185 36.5113 161.682 37.6 160.18 38.612C158.677 39.624 157.328 40.5133 156.132 41.28C157.113 42.7827 158.048 44.2087 158.938 45.558C159.858 46.9073 160.87 48.2413 161.974 49.56C163.078 50.848 164.366 52.1973 165.838 53.608C167.34 54.988 169.134 56.4753 171.22 58.07C170.944 58.5913 170.53 59.036 169.978 59.404C169.426 59.8027 168.889 60.002 168.368 60.002ZM193.388 58.254C191.518 58.254 190.076 57.748 189.064 56.736C188.052 55.7547 187.47 54.5587 187.316 53.148C185.998 54.6813 184.495 55.8773 182.808 56.736C181.122 57.5947 179.42 58.024 177.702 58.024C175.709 58.024 174.176 57.4873 173.102 56.414C172.06 55.3713 171.538 54.068 171.538 52.504C171.538 51.1547 171.876 49.7287 172.55 48.226C173.256 46.7233 174.191 45.3127 175.356 43.994C176.522 42.6447 177.81 41.556 179.22 40.728C180.631 39.8693 182.072 39.44 183.544 39.44C184.342 39.44 185.078 39.6393 185.752 40.038C186.458 40.4367 186.81 41.2493 186.81 42.476C186.81 43.6107 186.473 44.684 185.798 45.696C185.124 46.6773 184.219 47.5513 183.084 48.318C181.95 49.0847 180.692 49.7133 179.312 50.204C177.963 50.6947 176.598 51.0167 175.218 51.17C175.188 51.2927 175.157 51.4613 175.126 51.676C175.126 51.86 175.126 52.0747 175.126 52.32C175.126 52.872 175.218 53.4393 175.402 54.022C175.586 54.574 175.924 55.0493 176.414 55.448C176.936 55.8467 177.702 56.046 178.714 56.046C180.34 56.046 181.919 55.5247 183.452 54.482C185.016 53.4087 186.381 52.0747 187.546 50.48C187.822 49.2227 188.313 47.9807 189.018 46.754C189.724 45.5273 190.582 44.408 191.594 43.396C192.637 42.384 193.756 41.5713 194.952 40.958C196.179 40.3447 197.421 40.038 198.678 40.038C199.506 40.038 200.258 40.2373 200.932 40.636C201.638 41.0347 201.99 41.8627 201.99 43.12C201.99 44.6227 201.454 45.9567 200.38 47.122C199.338 48.2873 197.973 49.238 196.286 49.974C194.63 50.6793 192.867 51.1393 190.996 51.354C190.966 51.5073 190.935 51.676 190.904 51.86C190.904 52.0133 190.904 52.2127 190.904 52.458C190.904 53.01 190.981 53.5773 191.134 54.16C191.318 54.7427 191.656 55.2487 192.146 55.678C192.637 56.0767 193.373 56.276 194.354 56.276C195.673 56.276 196.992 55.8927 198.31 55.126C199.66 54.3593 200.902 53.3627 202.036 52.136C203.202 50.8787 204.152 49.5293 204.888 48.088L205.716 48.732C204.888 50.572 203.815 52.2127 202.496 53.654C201.208 55.0647 199.782 56.184 198.218 57.012C196.654 57.84 195.044 58.254 193.388 58.254ZM175.724 49.698C176.583 49.3913 177.488 48.9927 178.438 48.502C179.42 47.9807 180.34 47.398 181.198 46.754C182.088 46.0793 182.808 45.374 183.36 44.638C183.912 43.8713 184.188 43.0893 184.188 42.292C184.188 42.0467 184.127 41.8627 184.004 41.74C183.912 41.5867 183.698 41.51 183.36 41.51C182.502 41.51 181.551 41.924 180.508 42.752C179.496 43.5493 178.561 44.5767 177.702 45.834C176.844 47.0913 176.184 48.3793 175.724 49.698ZM191.502 49.698C192.3 49.422 193.143 49.0847 194.032 48.686C194.952 48.2567 195.811 47.766 196.608 47.214C197.406 46.662 198.065 46.0487 198.586 45.374C199.108 44.6687 199.368 43.902 199.368 43.074C199.368 42.43 199.077 42.108 198.494 42.108C197.636 42.108 196.746 42.476 195.826 43.212C194.906 43.9173 194.063 44.8527 193.296 46.018C192.53 47.1527 191.932 48.3793 191.502 49.698ZM201.1 68.88C200.732 68.88 200.348 68.742 199.95 68.466C199.52 68.19 199.29 67.9447 199.26 67.73C200.026 65.4913 200.686 63.544 201.238 61.888C201.759 60.2627 202.204 58.714 202.572 57.242C202.94 55.8007 203.277 54.298 203.584 52.734C203.86 51.1393 204.136 49.33 204.412 47.306C204.718 45.2513 205.056 42.7827 205.424 39.9C205.485 39.532 205.562 39.2713 205.654 39.118C205.746 38.934 206.037 38.842 206.528 38.842C207.478 38.842 208.168 39.1027 208.598 39.624C209.027 40.1147 209.242 40.6667 209.242 41.28C209.242 42.016 209.027 43.4573 208.598 45.604C209.18 44.7147 209.84 43.8713 210.576 43.074C211.342 42.2767 212.186 41.6327 213.106 41.142C214.026 40.6207 215.022 40.36 216.096 40.36C217.598 40.36 218.84 40.866 219.822 41.878C220.803 42.89 221.294 44.224 221.294 45.88C221.294 47.076 221.018 48.3487 220.466 49.698C219.944 51.0167 219.193 52.274 218.212 53.47C217.23 54.6353 216.05 55.586 214.67 56.322C213.29 57.0887 211.772 57.472 210.116 57.472C209.134 57.472 208.352 57.3493 207.77 57.104C207.187 56.8587 206.896 56.5827 206.896 56.276C206.896 56.0613 207.003 55.9387 207.218 55.908C207.463 55.8467 207.724 55.816 208 55.816C209.441 55.7853 210.744 55.4787 211.91 54.896C213.106 54.3133 214.133 53.562 214.992 52.642C215.85 51.6913 216.51 50.6793 216.97 49.606C217.43 48.5327 217.66 47.4747 217.66 46.432C217.66 45.512 217.445 44.7147 217.016 44.04C216.617 43.3653 215.973 43.028 215.084 43.028C214.317 43.028 213.535 43.2733 212.738 43.764C211.971 44.2547 211.25 44.8833 210.576 45.65C209.901 46.386 209.303 47.168 208.782 47.996C208.26 48.7933 207.862 49.4987 207.586 50.112C207.003 52.136 206.466 54.1447 205.976 56.138C205.516 58.162 205.071 60.0327 204.642 61.75C204.212 63.4673 203.783 64.924 203.354 66.12C202.894 67.316 202.403 68.1287 201.882 68.558C201.636 68.7727 201.376 68.88 201.1 68.88ZM228.014 58.024C226.051 58.024 224.533 57.4873 223.46 56.414C222.417 55.3713 221.896 54.0527 221.896 52.458C221.896 51.1087 222.233 49.6827 222.908 48.18C223.613 46.6467 224.548 45.2207 225.714 43.902C226.879 42.5527 228.167 41.464 229.578 40.636C230.988 39.808 232.399 39.394 233.81 39.394C234.607 39.394 235.358 39.6087 236.064 40.038C236.8 40.4367 237.168 41.2493 237.168 42.476C237.168 43.6413 236.83 44.73 236.156 45.742C235.481 46.754 234.576 47.6587 233.442 48.456C232.307 49.2533 231.05 49.9127 229.67 50.434C228.32 50.9247 226.956 51.2467 225.576 51.4C225.545 51.5227 225.514 51.6607 225.484 51.814C225.484 51.9367 225.484 52.1513 225.484 52.458C225.484 52.6113 225.499 52.8873 225.53 53.286C225.591 53.654 225.729 54.0527 225.944 54.482C226.158 54.9113 226.511 55.2793 227.002 55.586C227.492 55.8927 228.167 56.046 229.026 56.046C230.314 56.046 231.602 55.6933 232.89 54.988C234.208 54.252 235.435 53.286 236.57 52.09C237.735 50.894 238.701 49.56 239.468 48.088L240.388 48.824C239.56 50.664 238.486 52.274 237.168 53.654C235.88 55.034 234.438 56.1073 232.844 56.874C231.28 57.6407 229.67 58.024 228.014 58.024ZM226.082 49.698C226.879 49.606 227.768 49.33 228.75 48.87C229.731 48.41 230.666 47.8273 231.556 47.122C232.476 46.4167 233.227 45.65 233.81 44.822C234.392 43.9633 234.684 43.1047 234.684 42.246C234.684 41.9087 234.622 41.6787 234.5 41.556C234.377 41.4333 234.178 41.372 233.902 41.372C233.196 41.372 232.46 41.6327 231.694 42.154C230.927 42.6447 230.176 43.304 229.44 44.132C228.704 44.9293 228.044 45.8187 227.462 46.8C226.879 47.7813 226.419 48.7473 226.082 49.698ZM246.865 57.196C245.731 57.196 244.811 56.8893 244.105 56.276C243.4 55.6933 243.047 54.896 243.047 53.884C243.047 53.0253 243.262 52.1053 243.691 51.124C244.121 50.1427 244.55 49.1767 244.979 48.226C245.439 47.2753 245.669 46.432 245.669 45.696C245.669 44.9907 245.439 44.408 244.979 43.948C244.519 43.4573 243.983 43.0587 243.369 42.752C242.695 44.4387 241.928 46.0793 241.069 47.674C240.241 49.238 239.567 50.4647 239.045 51.354L238.355 50.02C238.785 49.2227 239.352 48.088 240.057 46.616C240.763 45.144 241.437 43.5033 242.081 41.694C241.775 41.3873 241.621 40.9733 241.621 40.452C241.621 39.6547 241.867 38.9033 242.357 38.198C242.848 37.4927 243.323 37.14 243.783 37.14C244.151 37.14 244.412 37.3547 244.565 37.784C244.749 38.1827 244.841 38.4587 244.841 38.612C244.841 38.7653 244.765 39.0413 244.611 39.44C244.489 39.8387 244.397 40.13 244.335 40.314C244.366 40.6513 244.627 40.9887 245.117 41.326C245.639 41.6327 246.221 42.0007 246.865 42.43C247.509 42.8593 248.077 43.396 248.567 44.04C249.058 44.684 249.303 45.4967 249.303 46.478C249.303 47.3673 249.104 48.272 248.705 49.192C248.307 50.112 247.908 50.9707 247.509 51.768C247.111 52.5653 246.911 53.2553 246.911 53.838C246.911 54.2673 247.019 54.5587 247.233 54.712C247.479 54.8347 247.755 54.896 248.061 54.896C248.797 54.896 249.564 54.6813 250.361 54.252C251.159 53.792 251.941 53.2093 252.707 52.504C253.474 51.7987 254.149 51.0627 254.731 50.296C255.314 49.4987 255.759 48.778 256.065 48.134L257.169 48.962C256.587 50.2807 255.743 51.584 254.639 52.872C253.535 54.1293 252.309 55.172 250.959 56C249.61 56.7973 248.245 57.196 246.865 57.196Z" fill="white"/>
</svg>
