<svg width="317" height="90" viewBox="0 0 317 90" fill="none" xmlns="http://www.w3.org/2000/svg">
<path fill-rule="evenodd" clip-rule="evenodd" d="M19.009 6.10038L0.920108 80.1004C-0.311631 85.1393 3.50401 90 8.6913 90H259.88C263.721 90 267.02 87.2701 267.739 83.4969L271.207 65.2897C271.95 61.3902 275.437 58.6245 279.404 58.7778C287.066 59.0737 299.124 59.5 305 59.5C312.5 59.5 317 56.5 317 46C317 36.5 311.5 34 305 34C302.331 34 299.399 33.9671 296.297 33.9324C292.465 33.8894 288.372 33.8435 284.196 33.8531C279.168 33.8647 275.246 29.3915 276.049 24.4281L278.499 9.27751C279.286 4.41269 275.53 0 270.602 0H26.7802C23.0936 0 19.8844 2.51925 19.009 6.10038ZM303 53C306.314 53 309 50.3137 309 47C309 43.6863 306.314 41 303 41C299.686 41 297 43.6863 297 47C297 50.3137 299.686 53 303 53Z" fill="#E0475B"/>
</svg>
